<svg width="90" height="58" viewBox="0 0 90 58" fill="none" xmlns="http://www.w3.org/2000/svg">
<path d="M60.4966 21.7542C62.2182 21.7542 62.4511 21.9453 62.4511 24.6957C62.4511 25.8009 62.4511 26.5654 62.3762 27.1803C62.2265 28.4765 61.8439 28.7507 57.935 28.7507C49.8594 28.7507 47.9465 26.7232 47.9465 18.8126V14.3421H46.8737C45.6095 14.3421 45.3434 13.9599 45.3018 12.9295C45.2602 12.3562 45.2602 11.6333 45.2602 10.902C45.2602 10.1708 45.2602 9.48942 45.3018 8.87452C45.3434 7.84415 45.6095 7.46191 46.8737 7.46191H47.9465V6.50633C47.9465 3.18254 48.8281 2.37653 54.4919 2.37653C57.8602 2.37653 58.5089 3.02466 58.5089 4.66994V7.46191H60.8459C62.1101 7.46191 62.3762 7.84415 62.4178 8.87452C62.4594 9.48942 62.4594 10.1708 62.4594 10.902C62.4594 11.6333 62.4594 12.3562 62.4178 12.9295C62.3762 13.9599 62.1101 14.3421 60.8459 14.3421H58.5089V20.1505C58.5089 21.6378 58.6586 21.7542 60.4966 21.7542Z" fill="black"/>
<path d="M75.417 0.0747851C75.9492 0.116332 76.1405 0.340688 76.1821 0.91404C76.2237 1.37106 76.2237 2.13553 76.2237 2.86676C76.2237 3.7808 76.2237 4.35416 76.1821 4.81949C76.1405 5.39284 75.9492 5.6255 75.417 5.65874C74.4189 5.73353 72.4728 5.73353 70.5932 5.73353C68.7136 5.73353 66.7675 5.73353 65.7694 5.65874C65.2372 5.61719 65.0459 5.39284 65.0043 4.81949C64.9627 4.36247 64.9627 3.78911 64.9627 2.86676C64.9627 2.14384 64.9627 1.37937 65.0043 0.91404C65.0459 0.340688 65.2372 0.108023 65.7694 0.0747851C66.7675 0 68.7136 0 70.5932 0C72.4728 0 74.4189 0 75.417 0.0747851ZM74.9179 7.56992C75.6831 7.6447 76.0241 7.9106 76.0657 8.67507C76.1405 11.5003 76.1405 13.7189 76.1405 17.9235C76.1405 22.1281 76.1405 24.4963 76.0657 27.3298C76.0241 28.0943 75.6831 28.3602 74.9179 28.435C74.0031 28.5513 72.1983 28.5513 70.5932 28.5513C68.9881 28.5513 67.1916 28.5513 66.2684 28.435C65.5033 28.3602 65.1623 28.0943 65.1207 27.3298C65.0459 24.5046 65.0459 22.286 65.0459 17.9235C65.0459 13.561 65.0459 11.5003 65.1207 8.67507C65.1623 7.9106 65.5033 7.6447 66.2684 7.56992C67.1833 7.45358 69.0213 7.45358 70.5932 7.45358C72.1651 7.45358 73.9948 7.45358 74.9179 7.56992Z" fill="black"/>
<path d="M60.8044 50.8539C62.5259 50.8539 62.7588 51.045 62.7588 53.7954C62.7588 54.9006 62.7588 55.665 62.684 56.2799C62.5343 57.5762 62.1517 57.8504 58.2428 57.8504C50.1671 57.8504 48.2543 55.8229 48.2543 47.9123V43.4418H47.1814C45.9172 43.4418 45.6511 43.0596 45.6095 42.0292C45.5679 41.4559 45.5679 40.7329 45.5679 40.0017C45.5679 39.2705 45.5679 38.5891 45.6095 37.9742C45.6511 36.9438 45.9172 36.5616 47.1814 36.5616H48.2543V35.606C48.2543 32.2822 49.1358 31.4762 54.7996 31.4762C58.1679 31.4762 58.8166 32.1243 58.8166 33.7696V36.5616H61.1537C62.4178 36.5616 62.684 36.9438 62.7255 37.9742C62.7671 38.5891 62.7671 39.2705 62.7671 40.0017C62.7671 40.7329 62.7671 41.4559 62.7255 42.0292C62.684 43.0596 62.4178 43.4418 61.1537 43.4418H58.8166V49.2501C58.8166 50.7375 58.9663 50.8539 60.8044 50.8539Z" fill="black"/>
<path d="M71.0922 58C66.5429 58 65.2039 56.5126 65.2039 51.3857C65.2039 46.9152 65.2039 40.2261 65.2455 37.7748C65.2455 36.9355 65.7778 36.7444 66.3932 36.6696C67.0835 36.5948 68.6887 36.5533 70.4518 36.5533C72.215 36.5533 73.8202 36.5948 74.5104 36.6696C75.1259 36.7444 75.6166 36.9355 75.6582 37.7748C75.733 40.2593 75.733 46.6825 75.733 50.239C75.733 51.2361 76.074 51.5768 77.072 51.5768C78.2613 51.5768 78.6772 51.3441 78.6772 49.4329C78.6772 45.7602 78.6772 40.2593 78.752 37.7748C78.7936 36.9355 79.2843 36.7444 79.8997 36.6696C80.59 36.5948 82.1952 36.5533 83.9584 36.5533C85.7215 36.5533 87.3267 36.5948 88.017 36.6696C88.6324 36.7444 89.1231 36.9355 89.1647 37.7748C89.2395 40.2593 89.2395 43.5831 89.2395 47.2143C89.2395 51.3774 89.2395 53.596 89.1647 56.4295C89.1231 57.194 88.7821 57.4599 88.017 57.5347C87.1021 57.651 85.2974 57.651 83.7338 57.651C82.3199 57.651 80.7481 57.651 79.9081 57.5347C79.1429 57.4599 78.7603 57.194 78.7603 56.4295L78.6855 52.8731H78.4942C77.4962 57.3103 75.891 58 71.1089 58H71.0922Z" fill="black"/>
<path d="M15.2364 21.7542C16.958 21.7542 17.1909 21.9453 17.1909 24.6957C17.1909 25.8009 17.1909 26.5654 17.116 27.1803C16.9663 28.4765 16.5837 28.7507 12.6748 28.7507C4.5992 28.7507 2.68633 26.7232 2.68633 18.8126V14.3421H1.61346C0.349307 14.3421 0.0831682 13.9599 0.0415841 12.9295C-3.09826e-09 12.3562 0 11.6333 0 10.902C0 10.1708 -3.09826e-09 9.48942 0.0415841 8.87452C0.0831682 7.84415 0.349307 7.46191 1.61346 7.46191H2.68633V6.50633C2.68633 3.18254 3.56792 2.37653 9.23168 2.37653C12.6 2.37653 13.2487 3.02466 13.2487 4.66994V7.46191H15.5857C16.8499 7.46191 17.116 7.84415 17.1576 8.87452C17.1992 9.48942 17.1992 10.1708 17.1992 10.902C17.1992 11.6333 17.1992 12.3562 17.1576 12.9295C17.116 13.9599 16.8499 14.3421 15.5857 14.3421H13.2487V20.1505C13.2487 21.6378 13.3984 21.7542 15.2364 21.7542Z" fill="#B47FFF"/>
<path d="M37.3841 7.45363C35.621 7.3373 34.1655 7.26251 31.3378 7.26251C28.5101 7.26251 25.5576 7.3373 23.5366 7.56996C21.3909 7.83586 20.4344 8.25965 20.0519 10.1293C19.819 11.276 19.7441 12.8049 19.7441 13.8021C19.7441 14.525 19.8606 14.7161 20.5509 14.7576C21.9647 14.8324 23.9525 14.8324 25.1002 14.8324C26.2479 14.8324 28.3521 14.7909 29.0839 14.7576C29.7327 14.7161 29.8075 14.6081 29.8491 13.7605C29.8907 12.6138 30.082 12.4227 31.4542 12.4227C32.4855 12.4227 32.8681 12.6554 32.9097 13.2619C32.9513 14.1427 32.9513 15.5554 32.9513 16.5525H21.7402C20.1683 16.5525 19.5612 17.2422 19.4447 18.6963C19.3699 19.5771 19.3283 20.7986 19.3283 21.8705C19.3283 27.3382 20.476 28.7508 25.5243 28.7508C30.5727 28.7508 32.2194 27.5625 32.8348 24.0061H33.0261V27.3299C33.0261 28.1691 33.4835 28.4018 34.099 28.435C34.8641 28.5098 36.3196 28.5513 38.0827 28.5513C39.8459 28.5513 41.4511 28.5098 42.0998 28.435C42.7152 28.3602 43.2059 28.1691 43.2475 27.3299C43.3223 24.8869 43.3223 18.4969 43.3223 14.0264C43.3223 8.90778 41.9418 7.76108 37.3925 7.45363H37.3841ZM30.1984 19.2364C30.1069 19.2863 30.0237 19.3528 29.9406 19.4109C29.9988 19.3278 30.0903 19.2697 30.1984 19.2364Z" fill="#B47FFF"/>
<path d="M15.5027 50.8539C17.2242 50.8539 17.4571 51.045 17.4571 53.7954C17.4571 54.9006 17.4571 55.665 17.3823 56.2799C17.2326 57.5762 16.85 57.8504 12.9411 57.8504C4.86544 57.8504 2.95257 55.8229 2.95257 47.9123V43.4418H1.8797C0.615542 43.4418 0.349404 43.0596 0.307819 42.0292C0.266235 41.4559 0.266235 40.7329 0.266235 40.0017C0.266235 39.2705 0.266235 38.5891 0.307819 37.9742C0.349404 36.9438 0.615542 36.5616 1.8797 36.5616H2.95257V35.606C2.95257 32.2822 3.83415 31.4762 9.49791 31.4762C12.8662 31.4762 13.5149 32.1243 13.5149 33.7696V36.5616H15.852C17.1161 36.5616 17.3823 36.9438 17.4238 37.9742C17.4654 38.5891 17.4654 39.2705 17.4654 40.0017C17.4654 40.7329 17.4654 41.4559 17.4238 42.0292C17.3823 43.0596 17.1161 43.4418 15.852 43.4418H13.5149V49.2501C13.5149 50.7375 13.6646 50.8539 15.5027 50.8539Z" fill="black"/>
<path d="M43.206 39.4617C42.707 37.4009 42.0167 36.9771 39.8377 36.7112C37.85 36.4453 34.8226 36.3705 31.762 36.3705C28.7014 36.3705 25.6741 36.4453 23.6864 36.7112C21.5074 36.9771 20.8171 37.4009 20.3181 39.4617C20.0104 40.8743 19.6694 43.5915 19.6694 47.1064C19.6694 50.6213 20.0104 53.3385 20.3181 54.7511C20.8171 56.8118 21.5074 57.2356 23.6864 57.5015C25.6741 57.7674 28.7014 57.8422 31.762 57.8422C34.8226 57.8422 37.8416 57.7674 39.8377 57.5015C42.0167 57.2356 42.707 56.8118 43.206 54.7511C43.5137 53.3385 43.8547 50.6213 43.8547 47.1064C43.8547 43.5915 43.5137 40.8743 43.206 39.4617Z" fill="black"/>
</svg>
